<svg xmlns="http://www.w3.org/2000/svg" width="256" height="128" fill="none" viewBox="0 0 256 128"><defs><linearGradient id="a" x1="0" x2="1" y1="0" y2="1"><stop offset="0%" stop-color="#f97316"/><stop offset="50%" stop-color="#f59e0b"/><stop offset="100%" stop-color="#ef4444"/></linearGradient></defs><rect width="244" height="100" x="6" y="12" fill="#0f172a" rx="16"/><path fill="url(#a)" d="m36 92 22-56h22l22 56H83l-4-12H59l-4 12zm30-25h8l-4-12z"/><path fill="url(#a)" d="M110 92V36h18l11 28 11-28h18v56h-17V63l-11 29h-10l-3-29v29z"/><path fill="url(#a)" d="M191 52h-14V36h45v16h-14v40h-17z"/><circle cx="44" cy="32" r="10" fill="#111827"/><circle cx="44" cy="32" r="5" fill="#e5e7eb"/></svg>