<svg width="256" height="128" viewBox="0 0 256 128" fill="none" xmlns="http://www.w3.org/2000/svg">
  <defs>
    <linearGradient id="amtGrad" x1="0" y1="0" x2="1" y2="1">
      <stop offset="0%" stop-color="#f97316"/>
      <stop offset="50%" stop-color="#f59e0b"/>
      <stop offset="100%" stop-color="#ef4444"/>
    </linearGradient>
  </defs>
  <rect x="6" y="12" width="244" height="100" rx="16" fill="#0f172a"/>
  <path d="M36 92 58 36h22l22 56h-19l-4-12H59l-4 12H36Zm30-25h8l-4-12-4 12Z" fill="url(#amtGrad)"/>
  <path d="M110 92V36h18l11 28 11-28h18v56h-17V63l-11 29h-10L127 63v29h-17Z" fill="url(#amtGrad)"/>
  <path d="M191 52h-14V36h45v16h-14v40h-17V52Z" fill="url(#amtGrad)"/>
  <circle cx="44" cy="32" r="10" fill="#111827"/>
  <circle cx="44" cy="32" r="5" fill="#e5e7eb"/>
</svg>

